<svg width="24" height="24" viewBox="0 0 24 24" fill="none" xmlns="http://www.w3.org/2000/svg">
<g id="Primitives/Icons/iconSmoking">

<g id="Smoking Icon">
<path fill-rule="evenodd" clip-rule="evenodd" d="M17.772 17.8924C17.8672 17.7991 17.9495 17.6935 18.0167 17.5784C18.1023 17.4577 18.1708 17.3166 18.2426 17.1967C18.4401 16.7521 18.541 16.2706 18.5387 15.7841C18.541 15.2981 18.4401 14.8172 18.2426 14.3731C18.1762 14.2408 18.1007 14.1133 18.0167 13.9914C17.9412 13.8816 17.8595 13.7762 17.772 13.6758H21.399C22.3035 13.6758 23 14.599 23 15.7841C23 16.9691 22.3035 17.8924 21.399 17.8924H17.772ZM3.60754 17.8924H3.57247C2.68184 17.8581 2 16.9536 2 15.7841C2 14.6145 2.68184 13.6953 3.57247 13.6758H16.1522C16.6456 13.6882 17.0988 13.9506 17.3553 14.3723C17.6187 14.7955 17.7567 15.2848 17.7533 15.7833C17.7608 16.2828 17.6225 16.7737 17.3553 17.1959C17.0988 17.6175 16.6456 17.8799 16.1522 17.8924H3.60754ZM2.64188 15.8534C2.64188 16.625 3.06272 17.2725 3.5529 17.2725C4.04307 17.2725 4.46555 16.6258 4.46555 15.8534C4.46555 15.081 4.0447 14.4302 3.5529 14.4302C3.06109 14.4302 2.64188 15.0835 2.64188 15.8559V15.8534ZM4.86846 14.4114C4.87236 14.4366 4.8834 14.4601 4.90026 14.4791C4.91494 14.5134 4.93533 14.5289 4.95002 14.5664C4.96877 14.5811 4.96877 14.6153 4.98345 14.6349C5.00696 14.6596 5.02478 14.6891 5.03565 14.7214C5.05441 14.7369 5.05441 14.7556 5.07072 14.7891C5.08402 14.8223 5.09519 14.8563 5.10416 14.891C5.10416 14.9253 5.12292 14.9432 5.12292 14.9775C5.13923 15.0117 5.13923 15.0452 5.15799 15.0794C5.15799 15.1137 5.1743 15.1332 5.1743 15.1667C5.1743 15.2001 5.19143 15.2539 5.19143 15.2874C5.19143 15.3208 5.20774 15.3404 5.20774 15.3738C5.22343 15.4174 5.22982 15.4638 5.2265 15.51V16.063C5.2265 16.1152 5.20774 16.1495 5.20774 16.1992C5.19486 16.2208 5.18915 16.2459 5.19143 16.271C5.19143 16.3053 5.1743 16.3583 5.1743 16.3917C5.1743 16.4251 5.15799 16.4415 5.15799 16.4782C5.13923 16.5124 5.13923 16.5467 5.12292 16.5809C5.12292 16.6144 5.10416 16.6299 5.10416 16.6682C5.09508 16.7028 5.08391 16.7369 5.07072 16.7701C5.05712 16.7919 5.04539 16.8149 5.03565 16.8387C5.01853 16.8729 5.00384 16.8908 4.98345 16.9259C4.98037 16.9516 4.96857 16.9755 4.95002 16.9936C4.93533 17.0279 4.91494 17.0466 4.90026 17.0809C4.89654 17.1061 4.88548 17.1296 4.86846 17.1486C4.86846 17.1673 4.86846 17.1673 4.84807 17.1828H16.0756C16.5649 17.1828 16.9727 16.5304 16.9727 15.7678C16.9727 15.0052 16.5649 14.3707 16.0756 14.3707H4.84807C4.84807 14.3943 4.86927 14.3943 4.86927 14.4139L4.86846 14.4114ZM2.45021 12.6285C2.44143 12.6179 2.43629 12.6048 2.43553 12.591C2.39468 11.8675 2.65378 11.1591 3.15181 10.6327C3.64984 10.1063 4.34278 9.80831 5.06746 9.80902H7.92858C8.00377 9.81011 8.07626 9.78106 8.1299 9.72834C8.18353 9.67563 8.21383 9.60365 8.21404 9.52845V7.20808C8.21396 7.19445 8.21857 7.1812 8.22709 7.17056C8.53293 6.83372 8.91871 7.04985 8.91871 7.35244V10.1255C8.91876 10.1683 8.9113 10.2108 8.89669 10.2511C9.02101 10.3876 9.0119 10.5988 8.8763 10.7241C8.25265 11.3762 7.38892 11.7441 6.4866 11.742H4.79995C4.67115 11.7393 4.54921 11.7999 4.47357 11.9042C4.39792 12.0085 4.37817 12.1432 4.42069 12.2648C4.48972 12.4249 4.43396 12.6115 4.28838 12.7075C4.14281 12.8034 3.94935 12.7812 3.82938 12.6546C3.78241 12.6193 3.75274 12.5656 3.74783 12.507C3.72139 12.1277 3.85346 11.7545 4.11256 11.4762C4.37165 11.1979 4.73456 11.0396 5.11477 11.0389H6.48334C7.05007 11.0351 7.60084 10.8508 8.05581 10.5129H5.06583C4.55329 10.5111 4.06125 10.714 3.69883 11.0764C3.3364 11.4388 3.13357 11.9309 3.13531 12.4434C3.13531 12.5368 3.09816 12.6263 3.03206 12.6922C2.96596 12.7582 2.87634 12.7951 2.78297 12.7949C2.65407 12.7892 2.53355 12.7294 2.45103 12.6302L2.45021 12.6285Z" fill="#262626"/>
<path d="M17.772 17.8924L17.702 17.821L17.5272 17.9924H17.772V17.8924ZM18.0167 17.5784L17.9348 17.5203L17.9303 17.528L18.0167 17.5784ZM18.2426 17.1967L18.3291 17.2484L18.334 17.2373L18.2426 17.1967ZM18.5387 15.7841L18.4387 15.7836L18.4387 15.7846L18.5387 15.7841ZM18.2426 14.3731L18.3341 14.3324L18.332 14.3282L18.2426 14.3731ZM18.0167 13.9914L17.9343 14.0481L17.9344 14.0482L18.0167 13.9914ZM17.772 13.6758V13.5758H17.5523L17.6966 13.7414L17.772 13.6758ZM3.57247 17.8924L3.56863 17.9924H3.57247V17.8924ZM3.57247 13.6758V13.5757L3.57027 13.5758L3.57247 13.6758ZM16.1522 13.6758L16.1548 13.5758H16.1522V13.6758ZM17.3553 14.3723L17.2698 14.4243L17.2704 14.4251L17.3553 14.3723ZM17.7533 15.7833L17.6532 15.7826L17.6533 15.7848L17.7533 15.7833ZM17.3553 17.1959L17.2707 17.1424L17.2698 17.1439L17.3553 17.1959ZM16.1522 17.8924V17.9924L16.1548 17.9924L16.1522 17.8924ZM4.86846 14.4114L4.96332 14.3798L4.76964 14.4268L4.86846 14.4114ZM4.90026 14.4791L4.99218 14.4397L4.98583 14.4249L4.97515 14.4129L4.90026 14.4791ZM4.95002 14.5664L4.85689 14.6028L4.86685 14.6283L4.88838 14.6451L4.95002 14.5664ZM4.98345 14.6349L4.9029 14.6953L4.91107 14.7039L4.98345 14.6349ZM5.03565 14.7214L4.94089 14.7533L4.94999 14.7803L4.97197 14.7985L5.03565 14.7214ZM5.07072 14.7891L5.16383 14.7518L5.1606 14.7452L5.07072 14.7891ZM5.10416 14.891H5.20416V14.8783L5.20097 14.8659L5.10416 14.891ZM5.12292 14.9775H5.02292V15.0001L5.03264 15.0205L5.12292 14.9775ZM5.15799 15.0794H5.25799V15.0538L5.2457 15.0314L5.15799 15.0794ZM5.20774 15.3738H5.10774V15.3913L5.11365 15.4077L5.20774 15.3738ZM5.2265 15.51L5.1265 15.5029V15.51H5.2265ZM5.20774 16.1992L5.29363 16.2504L5.30774 16.2268V16.1992H5.20774ZM5.19143 16.271H5.29185L5.29102 16.2619L5.19143 16.271ZM5.15799 16.4782L5.2457 16.5262L5.25799 16.5037V16.4782H5.15799ZM5.12292 16.5809L5.03264 16.5379L5.02292 16.5583V16.5809H5.12292ZM5.10416 16.6682L5.20089 16.6936L5.20416 16.6811V16.6682H5.10416ZM5.07072 16.7701L5.15558 16.8231L5.16036 16.8154L5.16369 16.807L5.07072 16.7701ZM5.03565 16.8387L5.12535 16.8835L5.1282 16.8765L5.03565 16.8387ZM4.98345 16.9259L4.897 16.8757L4.88662 16.8935L4.88417 16.914L4.98345 16.9259ZM4.95002 16.9936L4.88022 16.922L4.86595 16.9359L4.8581 16.9542L4.95002 16.9936ZM4.90026 17.0809L4.80835 17.0415L4.80324 17.0534L4.80134 17.0663L4.90026 17.0809ZM4.86846 17.1486L4.79406 17.0818L4.76846 17.1103V17.1486H4.86846ZM4.84807 17.1828L4.78756 17.1032L4.55122 17.2828H4.84807V17.1828ZM4.84807 14.3707V14.2707H4.74807V14.3707H4.84807ZM4.86927 14.4139L4.7744 14.4455L4.96927 14.4139H4.86927ZM2.45021 12.6285L2.53965 12.5838L2.53455 12.5736L2.52727 12.5648L2.45021 12.6285ZM2.43553 12.591L2.53538 12.5855L2.53537 12.5854L2.43553 12.591ZM5.06746 9.80902L5.06736 9.90902H5.06746V9.80902ZM7.92858 9.80902L7.93003 9.70902H7.92858V9.80902ZM8.21404 9.52845L8.31404 9.52873V9.52845H8.21404ZM8.21404 7.20808H8.31404L8.31403 7.20754L8.21404 7.20808ZM8.22709 7.17056L8.15291 7.10321L8.149 7.10808L8.22709 7.17056ZM8.91871 10.1255H8.81871L8.81871 10.1256L8.91871 10.1255ZM8.89669 10.2511L8.80269 10.217L8.78208 10.2737L8.82276 10.3184L8.89669 10.2511ZM8.8763 10.7241L8.8083 10.6505L8.80403 10.655L8.8763 10.7241ZM6.4866 11.742L6.48684 11.642H6.4866V11.742ZM4.79995 11.742L4.79787 11.842H4.79995V11.742ZM4.42069 12.2648L4.32606 12.2979L4.32886 12.3044L4.42069 12.2648ZM3.82938 12.6546L3.90195 12.5858L3.8962 12.5798L3.88951 12.5747L3.82938 12.6546ZM3.74783 12.507L3.64806 12.514L3.64818 12.5154L3.74783 12.507ZM5.11477 11.0389L5.11477 10.9389L5.11459 10.9389L5.11477 11.0389ZM6.48334 11.0389V11.1389L6.48402 11.1389L6.48334 11.0389ZM8.05581 10.5129L8.11544 10.5932L8.35816 10.4129H8.05581V10.5129ZM5.06583 10.5129L5.06549 10.6129H5.06583V10.5129ZM3.13531 12.4434L3.23531 12.4434L3.23531 12.4431L3.13531 12.4434ZM2.78297 12.7949L2.77852 12.8949L2.78274 12.8949L2.78297 12.7949ZM2.45103 12.6302L2.36158 12.6749L2.36675 12.6852L2.37415 12.6941L2.45103 12.6302ZM17.842 17.9638C17.9436 17.8643 18.0313 17.7516 18.1031 17.6288L17.9303 17.528C17.8676 17.6354 17.7908 17.7339 17.702 17.821L17.842 17.9638ZM18.0983 17.6363C18.1862 17.5123 18.2636 17.3564 18.3284 17.2481L18.1568 17.1453C18.0781 17.2768 18.0185 17.4031 17.9351 17.5205L18.0983 17.6363ZM18.334 17.2373C18.5372 16.7797 18.6411 16.2843 18.6387 15.7836L18.4387 15.7846C18.441 16.2569 18.343 16.7244 18.1512 17.1561L18.334 17.2373ZM18.6387 15.7846C18.6411 15.2844 18.5372 14.7895 18.334 14.3325L18.1512 14.4137C18.343 14.8449 18.4409 15.3118 18.4387 15.7836L18.6387 15.7846ZM18.332 14.3282C18.2635 14.1918 18.1857 14.0603 18.099 13.9346L17.9344 14.0482C18.0158 14.1662 18.0889 14.2898 18.1533 14.418L18.332 14.3282ZM18.0991 13.9347C18.0215 13.8218 17.9374 13.7134 17.8474 13.6101L17.6966 13.7414C17.7816 13.839 17.861 13.9414 17.9343 14.0481L18.0991 13.9347ZM17.772 13.7758H21.399V13.5758H17.772V13.7758ZM21.399 13.7758C22.2243 13.7758 22.9 14.6268 22.9 15.7841H23.1C23.1 14.5713 22.3827 13.5758 21.399 13.5758V13.7758ZM22.9 15.7841C22.9 16.9414 22.2243 17.7924 21.399 17.7924V17.9924C22.3827 17.9924 23.1 16.9969 23.1 15.7841H22.9ZM21.399 17.7924H17.772V17.9924H21.399V17.7924ZM3.60754 17.7924H3.57247V17.9924H3.60754V17.7924ZM3.57631 17.7925C2.76074 17.7611 2.1 16.9242 2.1 15.7841H1.9C1.9 16.9831 2.60294 17.9552 3.56863 17.9923L3.57631 17.7925ZM2.1 15.7841C2.1 14.6422 2.76166 13.7936 3.57467 13.7757L3.57027 13.5758C2.60202 13.5971 1.9 14.5869 1.9 15.7841H2.1ZM3.57247 13.7758H16.1522V13.5758H3.57247V13.7758ZM16.1497 13.7757C16.6091 13.7873 17.031 14.0317 17.2698 14.4242L17.4407 14.3203C17.1666 13.8696 16.6821 13.5891 16.1548 13.5758L16.1497 13.7757ZM17.2704 14.4251C17.5238 14.8323 17.6566 15.303 17.6533 15.7826L17.8533 15.784C17.8569 15.2665 17.7136 14.7587 17.4401 14.3194L17.2704 14.4251ZM17.6533 15.7848C17.6605 16.2649 17.5276 16.7367 17.2708 17.1424L17.4397 17.2494C17.7174 16.8108 17.8611 16.3008 17.8533 15.7818L17.6533 15.7848ZM17.2698 17.1439C17.031 17.5365 16.6091 17.7808 16.1497 17.7924L16.1548 17.9924C16.6821 17.979 17.1666 17.6986 17.4407 17.2478L17.2698 17.1439ZM16.1522 17.7924H3.60754V17.9924H16.1522V17.7924ZM2.54188 15.8534C2.54188 16.2563 2.65154 16.6303 2.82951 16.9065C3.0062 17.1807 3.26104 17.3725 3.5529 17.3725V17.1725C3.35458 17.1725 3.15391 17.0406 2.99763 16.7981C2.84263 16.5576 2.74188 16.2221 2.74188 15.8534H2.54188ZM3.5529 17.3725C3.84465 17.3725 4.09989 17.181 4.27703 16.9069C4.45544 16.6308 4.56555 16.2568 4.56555 15.8534H4.36555C4.36555 16.2224 4.26442 16.5579 4.10905 16.7983C3.9524 17.0407 3.75132 17.1725 3.5529 17.1725V17.3725ZM4.56555 15.8534C4.56555 15.4501 4.4559 15.0751 4.27777 14.7981C4.10092 14.523 3.84568 14.3302 3.5529 14.3302V14.5302C3.75192 14.5302 3.95301 14.6628 4.10954 14.9062C4.26478 15.1477 4.36555 15.4843 4.36555 15.8534H4.56555ZM3.5529 14.3302C3.2599 14.3302 3.00507 14.5239 2.82873 14.7995C2.65108 15.0771 2.54188 15.4527 2.54188 15.8559H2.74188C2.74188 15.4867 2.84228 15.1494 2.99719 14.9073C3.1534 14.6631 3.35409 14.5302 3.5529 14.5302V14.3302ZM2.74188 15.8559V15.8534H2.54188V15.8559H2.74188ZM4.76964 14.4268C4.77648 14.4708 4.79583 14.512 4.82538 14.5454L4.97515 14.4129C4.97097 14.4081 4.96824 14.4023 4.96727 14.3961L4.76964 14.4268ZM4.80835 14.5185C4.82015 14.5461 4.83468 14.5664 4.84254 14.5779C4.8505 14.5896 4.85387 14.5951 4.85689 14.6028L5.04314 14.53C5.03148 14.5002 5.01731 14.4792 5.00773 14.4652C4.99806 14.451 4.99505 14.4464 4.99218 14.4397L4.80835 14.5185ZM4.88838 14.6451C4.87807 14.6371 4.8734 14.6287 4.87214 14.6262C4.87111 14.6242 4.87131 14.624 4.87317 14.6298C4.87421 14.633 4.87769 14.6443 4.88122 14.6536C4.88509 14.6638 4.89178 14.6793 4.90346 14.6949L5.06346 14.5749C5.06779 14.5807 5.06897 14.5846 5.06813 14.5824C5.06694 14.5793 5.0665 14.5775 5.06336 14.5679C5.06104 14.5608 5.0568 14.548 5.05004 14.5348C5.04305 14.5212 5.03134 14.5031 5.01165 14.4876L4.88838 14.6451ZM4.91107 14.7039C4.92449 14.718 4.93467 14.7348 4.94089 14.7533L5.13042 14.6894C5.11488 14.6433 5.08942 14.6011 5.05584 14.5659L4.91107 14.7039ZM4.97197 14.7985C4.96853 14.7956 4.96531 14.792 4.96285 14.7882C4.96082 14.7851 4.96033 14.7833 4.96144 14.7861C4.96199 14.7874 4.96266 14.7892 4.96377 14.7921C4.96475 14.7948 4.96619 14.7986 4.96771 14.8026C4.97092 14.8109 4.97511 14.8211 4.98085 14.8329L5.1606 14.7452C5.1542 14.7321 5.15479 14.7307 5.14677 14.7109C5.13946 14.6929 5.12691 14.667 5.09934 14.6443L4.97197 14.7985ZM4.97787 14.8262C4.98959 14.8555 4.99944 14.8855 5.00736 14.9161L5.20097 14.8659C5.19093 14.8272 5.17844 14.7891 5.16357 14.7519L4.97787 14.8262ZM5.00416 14.891C5.00416 14.9274 5.01485 14.9553 5.01944 14.9681C5.02423 14.9814 5.02292 14.9796 5.02292 14.9775H5.22292C5.22292 14.941 5.21223 14.9132 5.20765 14.9004C5.20286 14.8871 5.20416 14.8888 5.20416 14.891H5.00416ZM5.03264 15.0205C5.03585 15.0272 5.03767 15.034 5.04274 15.0535C5.04723 15.0709 5.05441 15.0984 5.07028 15.1274L5.2457 15.0314C5.24282 15.0261 5.24062 15.0199 5.23634 15.0034C5.23264 14.9891 5.22631 14.962 5.21321 14.9345L5.03264 15.0205ZM5.05799 15.0794C5.05799 15.113 5.06648 15.1393 5.07051 15.1526C5.07275 15.1599 5.07351 15.1626 5.07401 15.1649C5.0742 15.1658 5.07426 15.1662 5.07428 15.1664C5.0743 15.1665 5.0743 15.1666 5.0743 15.1667H5.2743C5.2743 15.1332 5.26566 15.1068 5.26179 15.0941C5.25767 15.0806 5.25799 15.08 5.25799 15.0794H5.05799ZM5.0743 15.1667C5.0743 15.1953 5.08116 15.2281 5.08474 15.2463C5.08696 15.2576 5.0887 15.2666 5.08996 15.2746C5.09056 15.2784 5.09095 15.2814 5.09118 15.2838C5.0913 15.285 5.09136 15.2858 5.0914 15.2865C5.09143 15.2871 5.09143 15.2874 5.09143 15.2874H5.29143C5.29143 15.2587 5.28457 15.226 5.281 15.2078C5.27877 15.1965 5.27703 15.1875 5.27578 15.1795C5.27518 15.1757 5.27479 15.1726 5.27456 15.1703C5.27444 15.1691 5.27438 15.1682 5.27434 15.1676C5.2743 15.1669 5.2743 15.1667 5.2743 15.1667H5.0743ZM5.09143 15.2874C5.09143 15.3209 5.10008 15.3472 5.10401 15.36C5.10622 15.3672 5.10698 15.3699 5.10746 15.3721C5.10765 15.3729 5.10771 15.3734 5.10772 15.3735C5.10774 15.3737 5.10774 15.3738 5.10774 15.3738H5.30774C5.30774 15.3404 5.2991 15.314 5.29517 15.3012C5.29296 15.294 5.2922 15.2914 5.29171 15.2891C5.29153 15.2883 5.29147 15.2878 5.29145 15.2877C5.29143 15.2875 5.29143 15.2875 5.29143 15.2874H5.09143ZM5.11365 15.4077C5.12462 15.4382 5.12908 15.4706 5.12676 15.5029L5.32625 15.5172C5.33057 15.4571 5.32225 15.3967 5.30184 15.34L5.11365 15.4077ZM5.1265 15.51V16.063H5.3265V15.51H5.1265ZM5.1265 16.063C5.1265 16.0771 5.12419 16.0891 5.11946 16.1105C5.11498 16.1309 5.10774 16.162 5.10774 16.1992H5.30774C5.30774 16.1867 5.30988 16.1758 5.31479 16.1535C5.31944 16.1324 5.3265 16.1012 5.3265 16.063H5.1265ZM5.12185 16.148C5.09816 16.1877 5.08765 16.234 5.09184 16.2801L5.29102 16.2619C5.29066 16.2579 5.29157 16.2539 5.29363 16.2504L5.12185 16.148ZM5.09143 16.271C5.09143 16.2762 5.0897 16.2873 5.08476 16.3123C5.0812 16.3304 5.0743 16.363 5.0743 16.3917H5.2743C5.2743 16.3917 5.2743 16.3914 5.27434 16.3908C5.27437 16.3902 5.27444 16.3893 5.27455 16.3882C5.27478 16.3859 5.27517 16.3829 5.27577 16.3791C5.27701 16.3712 5.27875 16.3623 5.28098 16.351C5.2846 16.3326 5.29143 16.3 5.29143 16.271H5.09143ZM5.0743 16.3917C5.0743 16.3918 5.0743 16.3917 5.07432 16.3916C5.07433 16.3915 5.07431 16.3917 5.07419 16.3922C5.07379 16.394 5.07319 16.396 5.07084 16.4034C5.06631 16.4177 5.05799 16.4434 5.05799 16.4782H5.25799C5.25799 16.4762 5.25783 16.4754 5.26146 16.464C5.2653 16.4519 5.2743 16.4258 5.2743 16.3917H5.0743ZM5.07028 16.4301C5.0543 16.4593 5.04712 16.4873 5.04266 16.5047C5.03759 16.5246 5.03576 16.5314 5.03264 16.5379L5.21321 16.6239C5.22639 16.5962 5.23273 16.5688 5.23642 16.5543C5.24073 16.5375 5.24292 16.5313 5.2457 16.5262L5.07028 16.4301ZM5.02292 16.5809C5.02292 16.5776 5.02482 16.5742 5.01961 16.5884C5.01412 16.6035 5.00416 16.6306 5.00416 16.6682H5.20416C5.20416 16.6674 5.20358 16.6677 5.20748 16.657C5.21165 16.6456 5.22292 16.6177 5.22292 16.5809H5.02292ZM5.00744 16.6428C4.99937 16.6735 4.98946 16.7038 4.97776 16.7333L5.16369 16.807C5.17836 16.77 5.19078 16.7321 5.20089 16.6936L5.00744 16.6428ZM4.98587 16.7172C4.96929 16.7438 4.95498 16.7718 4.94311 16.8008L5.1282 16.8765C5.1358 16.858 5.14496 16.8401 5.15558 16.8231L4.98587 16.7172ZM4.94621 16.7939C4.93982 16.8067 4.9339 16.8165 4.92638 16.8283C4.91899 16.84 4.90851 16.8559 4.897 16.8757L5.06991 16.9762C5.07879 16.9609 5.08585 16.9503 5.09517 16.9356C5.10437 16.9211 5.11435 16.9049 5.1251 16.8834L4.94621 16.7939ZM4.88417 16.914C4.8838 16.917 4.88241 16.9199 4.88022 16.922L5.01981 17.0652C5.05473 17.0312 5.07694 16.9862 5.08274 16.9378L4.88417 16.914ZM4.8581 16.9542C4.85474 16.9621 4.85075 16.9685 4.84174 16.9821C4.83321 16.995 4.81967 17.0151 4.80835 17.0415L4.99218 17.1203C4.99554 17.1124 4.99953 17.106 5.00854 17.0924C5.01707 17.0795 5.03061 17.0594 5.04193 17.033L4.8581 16.9542ZM4.80134 17.0663C4.80049 17.072 4.79795 17.0774 4.79406 17.0818L4.94285 17.2154C4.973 17.1818 4.99259 17.1401 4.99919 17.0955L4.80134 17.0663ZM4.76846 17.1486C4.76846 17.1512 4.76845 17.1521 4.76844 17.1526C4.76843 17.1531 4.76844 17.1514 4.76874 17.1487C4.7695 17.1418 4.77196 17.1292 4.77998 17.1158C4.78683 17.1043 4.79434 17.098 4.79455 17.0978C4.79457 17.0978 4.79366 17.0986 4.78756 17.1032L4.90857 17.2624C4.91266 17.2593 4.9194 17.2543 4.92515 17.2493C4.9311 17.2442 4.94244 17.2339 4.95184 17.2181C4.9624 17.2003 4.96613 17.1833 4.96753 17.1707C4.96859 17.161 4.96846 17.1512 4.96846 17.1486H4.76846ZM4.84807 17.2828H16.0756V17.0828H4.84807V17.2828ZM16.0756 17.2828C16.3678 17.2828 16.6192 17.0888 16.7922 16.8146C16.9666 16.5385 17.0727 16.1657 17.0727 15.7678H16.8727C16.8727 16.1324 16.775 16.4672 16.6231 16.7079C16.4699 16.9506 16.2727 17.0828 16.0756 17.0828V17.2828ZM17.0727 15.7678C17.0727 15.3697 16.9665 15.0012 16.7918 14.7292C16.6181 14.4588 16.3666 14.2707 16.0756 14.2707V14.4707C16.2739 14.4707 16.471 14.5998 16.6235 14.8373C16.7751 15.0732 16.8727 15.4032 16.8727 15.7678H17.0727ZM16.0756 14.2707H4.84807V14.4707H16.0756V14.2707ZM4.74807 14.3707C4.74807 14.3928 4.75338 14.4139 4.76366 14.4326C4.77286 14.4494 4.78426 14.4607 4.78729 14.4638C4.78978 14.4664 4.78896 14.4655 4.78845 14.465C4.78747 14.4639 4.78468 14.4607 4.78161 14.4559C4.77837 14.4508 4.77503 14.4442 4.77263 14.4363C4.77023 14.4283 4.76927 14.4207 4.76927 14.4139H4.96927C4.96927 14.4022 4.96765 14.3903 4.96409 14.3785C4.96053 14.3667 4.95554 14.3567 4.95031 14.3485C4.94525 14.3405 4.94014 14.3345 4.93667 14.3307C4.93368 14.3274 4.93021 14.3239 4.93005 14.3238C4.92778 14.3214 4.93388 14.3271 4.9391 14.3366C4.94541 14.3481 4.94807 14.3603 4.94807 14.3707H4.74807ZM4.96414 14.3823L4.96332 14.3798L4.77359 14.4431L4.7744 14.4455L4.96414 14.3823ZM2.52727 12.5648C2.53212 12.5707 2.53496 12.5779 2.53538 12.5855L2.33568 12.5965C2.33761 12.6316 2.35074 12.6652 2.37315 12.6923L2.52727 12.5648ZM2.53537 12.5854C2.49607 11.8893 2.74534 11.2078 3.22445 10.7014L3.07917 10.564C2.56223 11.1104 2.29329 11.8457 2.33569 12.5967L2.53537 12.5854ZM3.22445 10.7014C3.70357 10.195 4.3702 9.90834 5.06736 9.90902L5.06756 9.70902C4.31536 9.70829 3.59611 10.0175 3.07917 10.564L3.22445 10.7014ZM5.06746 9.90902H7.92858V9.70902H5.06746V9.90902ZM7.92713 9.90901C8.02904 9.91048 8.1273 9.87111 8.19999 9.79966L8.0598 9.65703C8.02523 9.691 7.97849 9.70973 7.93003 9.70903L7.92713 9.90901ZM8.19999 9.79966C8.27268 9.72822 8.31375 9.63065 8.31404 9.52873L8.11404 9.52817C8.1139 9.57665 8.09437 9.62305 8.0598 9.65703L8.19999 9.79966ZM8.31404 9.52845V7.20808H8.11404V9.52845H8.31404ZM8.31403 7.20754C8.31408 7.2168 8.31095 7.2258 8.30517 7.23304L8.149 7.10808C8.12618 7.1366 8.11384 7.17209 8.11404 7.20861L8.31403 7.20754ZM8.30112 7.23778C8.43058 7.09521 8.56175 7.08183 8.65294 7.11552C8.74987 7.15132 8.81871 7.24461 8.81871 7.35244H9.01871C9.01871 7.15768 8.89467 6.99161 8.72224 6.92791C8.54408 6.86209 8.32944 6.90907 8.15305 7.10334L8.30112 7.23778ZM8.81871 7.35244V10.1255H9.01871V7.35244H8.81871ZM8.81871 10.1256C8.81874 10.1567 8.81332 10.1877 8.80269 10.217L8.99069 10.2852C9.00929 10.234 9.01877 10.1799 9.01871 10.1254L8.81871 10.1256ZM8.82276 10.3184C8.91008 10.4143 8.90368 10.5627 8.80843 10.6507L8.94417 10.7976C9.12012 10.635 9.13194 10.3609 8.97063 10.1837L8.82276 10.3184ZM8.80403 10.655C8.1993 11.2873 7.36178 11.6441 6.48684 11.642L6.48636 11.842C7.41606 11.8442 8.306 11.4651 8.94857 10.7932L8.80403 10.655ZM6.4866 11.642H4.79995V11.842H6.4866V11.642ZM4.80202 11.642C4.64046 11.6386 4.48751 11.7147 4.39262 11.8455L4.55451 11.9629C4.61092 11.8851 4.70183 11.84 4.79787 11.842L4.80202 11.642ZM4.39262 11.8455C4.29774 11.9763 4.27296 12.1453 4.3263 12.2978L4.51509 12.2318C4.48338 12.1411 4.49811 12.0406 4.55451 11.9629L4.39262 11.8455ZM4.32886 12.3044C4.3787 12.42 4.33844 12.5547 4.23334 12.624L4.34342 12.7909C4.52947 12.6683 4.60074 12.4298 4.51252 12.2252L4.32886 12.3044ZM4.23334 12.624C4.12823 12.6933 3.98857 12.6772 3.90195 12.5858L3.75682 12.7234C3.91014 12.8852 4.15738 12.9136 4.34342 12.7909L4.23334 12.624ZM3.88951 12.5747C3.8653 12.5565 3.85001 12.5288 3.84747 12.4986L3.64818 12.5154C3.65548 12.6023 3.69952 12.6821 3.76926 12.7345L3.88951 12.5747ZM3.84758 12.5001C3.82308 12.1484 3.94553 11.8023 4.18574 11.5443L4.03937 11.4081C3.7614 11.7066 3.61971 12.107 3.64807 12.514L3.84758 12.5001ZM4.18574 11.5443C4.42596 11.2863 4.76243 11.1396 5.11494 11.1389L5.11459 10.9389C4.70668 10.9396 4.31734 11.1095 4.03937 11.4081L4.18574 11.5443ZM5.11477 11.1389H6.48334V10.9389H5.11477V11.1389ZM6.48402 11.1389C7.07199 11.1349 7.64341 10.9438 8.11544 10.5932L7.99618 10.4326C7.55826 10.7579 7.02814 10.9352 6.48265 10.9389L6.48402 11.1389ZM8.05581 10.4129H5.06583V10.6129H8.05581V10.4129ZM5.06617 10.4129C4.52699 10.411 4.00937 10.6244 3.62811 11.0057L3.76954 11.1471C4.11312 10.8035 4.57959 10.6112 5.06549 10.6129L5.06617 10.4129ZM3.62811 11.0057C3.24686 11.3869 3.03348 11.9046 3.03531 12.4437L3.23531 12.4431C3.23366 11.9572 3.42595 11.4907 3.76954 11.1471L3.62811 11.0057ZM3.03531 12.4434C3.03531 12.5102 3.00873 12.5743 2.96144 12.6215L3.10269 12.763C3.1876 12.6783 3.23531 12.5633 3.23531 12.4434L3.03531 12.4434ZM2.96144 12.6215C2.91414 12.6686 2.85001 12.6951 2.78321 12.6949L2.78274 12.8949C2.90267 12.8952 3.01779 12.8477 3.10269 12.763L2.96144 12.6215ZM2.78743 12.695C2.68664 12.6905 2.59242 12.6438 2.5279 12.5662L2.37415 12.6941C2.47468 12.815 2.62149 12.8878 2.77852 12.8948L2.78743 12.695ZM2.54047 12.5854L2.53965 12.5838L2.36077 12.6733L2.36158 12.6749L2.54047 12.5854Z" fill="#262626"/>
</g>
</g>
</svg>
