<svg width="24" height="24" viewBox="0 0 24 24" fill="none" xmlns="http://www.w3.org/2000/svg">
<g id="Primitives/Icons/iconHeart">

<path id="Path" fill-rule="evenodd" clip-rule="evenodd" d="M16.95 1.99829C15.2256 1.99829 13.5718 2.68353 12.3527 3.90318L12 4.2559L11.6471 3.90301C9.10819 1.3641 4.9918 1.3641 2.45289 3.90301C-0.086022 6.44192 -0.0860219 10.5583 2.45289 13.0972L11.2929 21.9372C11.6834 22.3277 12.3166 22.3277 12.7071 21.9372L21.5471 13.0972C22.7666 11.8783 23.4518 10.2246 23.4518 8.50012C23.4518 6.87156 22.8407 5.30603 21.7454 4.11015L21.5471 3.90301C20.328 2.68347 18.6744 1.99829 16.95 1.99829ZM20.1331 11.6828L12 19.8159L3.8671 11.683C2.10924 9.92515 2.10924 7.07509 3.8671 5.31722C5.62497 3.55936 8.47503 3.55936 10.2329 5.31722L11.2929 6.37722C11.6834 6.76775 12.3166 6.76775 12.7071 6.37722L13.7671 5.31722C14.6112 4.47269 15.7562 3.99829 16.95 3.99829C18.0642 3.99829 19.1359 4.41154 19.96 5.15315L20.1331 5.31739C20.9774 6.16136 21.4518 7.30628 21.4518 8.50012C21.4518 9.69396 20.9774 10.8389 20.1331 11.6828Z" fill="#E6656D"/>
</g>
</svg>
