<svg width="24" height="24" viewBox="0 0 24 24" fill="none" xmlns="http://www.w3.org/2000/svg">
<g id="Primitives/Icons/iconArrowleft">

<path id="Combined Shape" fill-rule="evenodd" clip-rule="evenodd" d="M3.29341 12.7076L11.2929 20.7071C11.6834 21.0976 12.3166 21.0976 12.7071 20.7071C13.0976 20.3166 13.0976 19.6834 12.7071 19.2929L6.41421 13H20C20.5523 13 21 12.5523 21 12C21 11.4477 20.5523 11 20 11H6.41421L12.7071 4.70711C13.0976 4.31658 13.0976 3.68342 12.7071 3.29289C12.3166 2.90237 11.6834 2.90237 11.2929 3.29289L3.29341 11.2924M3.07588 12.3828C3.12432 12.4999 3.19595 12.6096 3.29078 12.705L3.07588 12.3828ZM3.07588 11.6172C3.02699 11.7351 3 11.8644 3 12C3 12.1356 3.02699 12.2649 3.07588 12.3828M3.29078 11.295C3.19595 11.3904 3.12432 11.5001 3.07588 11.6172L3.29078 11.295Z" fill="#262626"/>
</g>
</svg>
