<svg width="24" height="24" viewBox="0 0 24 24" fill="none" xmlns="http://www.w3.org/2000/svg">
<g id="Primitives/Icons/iconShare">

<path id="Combined Shape" fill-rule="evenodd" clip-rule="evenodd" d="M17.8217 10.3059C18.2275 10.6805 18.8602 10.6552 19.2348 10.2493C19.6094 9.84353 19.5841 9.21087 19.1783 8.83626L12.6783 2.83626C12.2952 2.48267 11.7048 2.48267 11.3217 2.83626L4.82172 8.83626C4.4159 9.21087 4.39059 9.84353 4.7652 10.2493C5.1398 10.6552 5.77246 10.6805 6.17828 10.3059L11 5.85505V15C11 15.5523 11.4477 16 12 16C12.5523 16 13 15.5523 13 15V5.85505L17.8217 10.3059ZM19.5 19V15C19.5 14.4477 19.9477 14 20.5 14C21.0523 14 21.5 14.4477 21.5 15V19C21.5 20.6569 20.1569 22 18.5 22H5.5C3.84315 22 2.5 20.6569 2.5 19V15C2.5 14.4477 2.94772 14 3.5 14C4.05228 14 4.5 14.4477 4.5 15V19C4.5 19.5523 4.94772 20 5.5 20H18.5C19.0523 20 19.5 19.5523 19.5 19Z" fill="#262626"/>
</g>
</svg>
