<svg width="24" height="24" viewBox="0 0 24 24" fill="none" xmlns="http://www.w3.org/2000/svg">
<g id="Primitives/Icons/iconJob">

<path id="Combined Shape" fill-rule="evenodd" clip-rule="evenodd" d="M8 5.77778V7H6C4.34315 7 3 8.34315 3 10V18C3 19.6569 4.34315 21 6 21H19C20.6569 21 22 19.6569 22 18V10C22 8.34315 20.6569 7 19 7H17V5.77778C17 4.24715 15.7723 3 14.25 3H10.75C9.22766 3 8 4.24715 8 5.77778ZM15 7V5.77778C15 5.34473 14.6607 5 14.25 5H10.75C10.3393 5 10 5.34473 10 5.77778V7H15ZM9.99327 18.25C9.93551 18.6722 9.51284 19 9 19C8.44772 19 8 18.6199 8 18.1509V9.84906L8.00673 9.75004C8.06449 9.32777 8.48716 9 9 9C9.55228 9 10 9.38014 10 9.84906V18.1509L9.99327 18.25ZM16.9933 18.25C16.9355 18.6722 16.5128 19 16 19C15.4477 19 15 18.6199 15 18.1509V9.84906L15.0067 9.75004C15.0645 9.32777 15.4872 9 16 9C16.5523 9 17 9.38014 17 9.84906V18.1509L16.9933 18.25Z" fill="#262626"/>
</g>
</svg>
