<svg width="24" height="24" viewBox="0 0 24 24" fill="none" xmlns="http://www.w3.org/2000/svg">
<rect width="24" height="24" fill="white"/>
<path fill-rule="evenodd" clip-rule="evenodd" d="M10.3704 9.48148H8.63319C8.95667 9.01907 9.14815 8.45767 9.14815 7.85185C9.14815 6.27926 7.86889 5 6.2963 5C4.7237 5 3.44444 6.27926 3.44444 7.85185C3.44444 8.45767 3.63593 9.01907 3.95941 9.48148H2.22222C1.54837 9.48148 1 10.0299 1 10.7037C1 11.3776 1.54837 11.9259 2.22222 11.9259H3.44444V17.586C3.44444 18.2037 3.88281 18.7406 4.46419 18.8351C4.531 18.8461 4.59822 18.8514 4.66463 18.8514C4.9543 18.8514 5.23581 18.75 5.45826 18.5606C5.73204 18.3279 5.88889 17.9886 5.88889 17.6296V15.5926H6.7037V17.6296C6.7037 17.9886 6.86056 18.3279 7.13433 18.561C7.35678 18.75 7.63789 18.8519 7.92796 18.8519C7.99437 18.8519 8.06159 18.8466 8.12841 18.8356C8.70978 18.7406 9.14815 18.2037 9.14815 17.586V11.9259H10.3704C11.0442 11.9259 11.5926 11.3776 11.5926 10.7037C11.5926 10.0299 11.0442 9.48148 10.3704 9.48148ZM6.2963 5.81481C7.41952 5.81481 8.33333 6.72863 8.33333 7.85185C8.33333 8.97507 7.41952 9.88889 6.2963 9.88889C5.17307 9.88889 4.25926 8.97507 4.25926 7.85185C4.25926 6.72863 5.17307 5.81481 6.2963 5.81481ZM10.3704 11.1111H8.74074C8.51585 11.1111 8.33333 11.2936 8.33333 11.5185V17.586C8.33333 17.8048 8.18585 18.0004 7.99722 18.0313C7.87419 18.0509 7.75482 18.0191 7.66193 17.9401C7.57067 17.8627 7.51852 17.7494 7.51852 17.6296V15.1852C7.51852 14.9603 7.336 14.7778 7.11111 14.7778H5.48148C5.25659 14.7778 5.07407 14.9603 5.07407 15.1852V17.6296C5.07407 17.7494 5.02193 17.8627 4.93026 17.9401C4.83737 18.0187 4.71881 18.0505 4.59496 18.0313C4.40674 18.0004 4.25926 17.8048 4.25926 17.586V11.5185C4.25926 11.2936 4.07674 11.1111 3.85185 11.1111H2.22222C1.99774 11.1111 1.81481 10.9282 1.81481 10.7037C1.81481 10.4792 1.99774 10.2963 2.22222 10.2963H4.83493C5.26311 10.5534 5.76178 10.7037 6.2963 10.7037C6.83081 10.7037 7.32948 10.5534 7.75767 10.2963H10.3704C10.5949 10.2963 10.7778 10.4792 10.7778 10.7037C10.7778 10.9282 10.5949 11.1111 10.3704 11.1111ZM23 10.7037C23 10.0299 22.4516 9.48148 21.7778 9.48148H20.0406C20.3641 9.01907 20.5556 8.45767 20.5556 7.85185C20.5556 6.27926 19.2763 5 17.7037 5C16.1311 5 14.8519 6.27926 14.8519 7.85185C14.8519 8.45767 15.0433 9.01907 15.3668 9.48148H13.6296C12.9558 9.48148 12.4074 10.0299 12.4074 10.7037C12.4074 11.3776 12.9558 11.9259 13.6296 11.9259H14.6942L13.243 16.2787C13.2014 16.4029 13.2226 16.5394 13.2988 16.6457C13.3754 16.7517 13.4984 16.8148 13.6296 16.8148H14.8519V17.586C14.8519 18.2037 15.2902 18.7406 15.8716 18.8351C15.9384 18.8461 16.0056 18.8514 16.072 18.8514C16.3617 18.8514 16.6432 18.75 16.8657 18.5606C17.1394 18.3279 17.2963 17.9886 17.2963 17.6296V16.8148H18.1111V17.6296C18.1111 17.9886 18.268 18.3279 18.5417 18.561C18.7642 18.75 19.0453 18.8519 19.3354 18.8519C19.4018 18.8519 19.469 18.8466 19.5358 18.8356C20.1172 18.7406 20.5556 18.2037 20.5556 17.586V16.8148H21.7778C21.9086 16.8148 22.0316 16.7521 22.1082 16.6453C22.1848 16.539 22.2056 16.4025 22.1644 16.2783L20.7132 11.9259H21.7778C22.4516 11.9259 23 11.3776 23 10.7037ZM17.7037 5.81481C18.8269 5.81481 19.7407 6.72863 19.7407 7.85185C19.7407 8.97507 18.8269 9.88889 17.7037 9.88889C16.5805 9.88889 15.6667 8.97507 15.6667 7.85185C15.6667 6.72863 16.5805 5.81481 17.7037 5.81481ZM19.7615 11.6473L21.2127 16H20.1481C19.9233 16 19.7407 16.1825 19.7407 16.4074V17.586C19.7407 17.8048 19.5933 18.0004 19.4046 18.0313C19.2816 18.0509 19.1622 18.0191 19.0693 17.9401C18.9781 17.8627 18.9259 17.7494 18.9259 17.6296V16.4074C18.9259 16.1825 18.7434 16 18.5185 16H16.8889C16.664 16 16.4815 16.1825 16.4815 16.4074V17.6296C16.4815 17.7494 16.4293 17.8627 16.3377 17.9401C16.2448 18.0187 16.1258 18.0505 16.0024 18.0313C15.8141 18.0004 15.6667 17.8048 15.6667 17.586V16.4074C15.6667 16.1825 15.4841 16 15.2593 16H14.1947L15.6459 11.6473C15.6874 11.523 15.6663 11.3865 15.5897 11.2802C15.5131 11.1739 15.39 11.1111 15.2593 11.1111H13.6296C13.4051 11.1111 13.2222 10.9282 13.2222 10.7037C13.2222 10.4792 13.4051 10.2963 13.6296 10.2963H16.2423C16.6705 10.5534 17.1692 10.7037 17.7037 10.7037C18.2382 10.7037 18.7369 10.5534 19.1651 10.2963H21.7778C22.0023 10.2963 22.1852 10.4792 22.1852 10.7037C22.1852 10.9282 22.0023 11.1111 21.7778 11.1111H20.1481C20.0174 11.1111 19.8943 11.1739 19.8177 11.2806C19.7411 11.3865 19.7204 11.523 19.7615 11.6473Z" fill="#262626"/>
</svg>
