<svg width="24" height="24" viewBox="0 0 24 24" fill="none" xmlns="http://www.w3.org/2000/svg">
<g id="Primitives/Icons/iconBirthday">

<path id="Combined Shape" fill-rule="evenodd" clip-rule="evenodd" d="M10.5841 6.39208C9.83299 5.61293 9.80357 4.36267 10.5115 3.54796L10.5468 3.50741L12 2L13.4532 3.50733L13.4883 3.5478C14.1964 4.3625 14.1671 5.61287 13.4159 6.39208C12.6344 7.20264 11.3656 7.20264 10.5841 6.39208ZM12.18 8C16.0678 8 19.4063 10.4443 20.0646 13.808C20.1855 14.4256 19.7126 15 19.0832 15H5.27679C4.64742 15 4.17452 14.4256 4.29541 13.808C4.95375 10.4443 8.29223 8 12.18 8ZM6.00096 17C5.27742 17 4.79344 17.7449 5.0873 18.4061L6.42042 21.4061C6.58089 21.7673 6.93896 22 7.33408 22H16.6659C17.061 22 17.4191 21.7673 17.5796 21.4061L18.9127 18.4061C19.2066 17.7449 18.7226 17 17.999 17H6.00096Z" fill="#262626"/>
</g>
</svg>
