<svg width="24" height="24" viewBox="0 0 24 24" fill="none" xmlns="http://www.w3.org/2000/svg">
<g id="Primitives/Icons/iconInstant">

<path id="Combined Shape" fill-rule="evenodd" clip-rule="evenodd" d="M15.8774 7.10637L21.8179 7.9696C22.9553 8.13488 23.4037 9.56351 22.5711 10.3697L18.2935 14.5118L19.3015 20.355C19.498 21.4941 18.3299 22.3707 17.3194 21.8424L12 19.0613L6.68056 21.8424C5.67007 22.3707 4.50197 21.4941 4.69849 20.355L5.70655 14.5118L1.42888 10.3697C0.596323 9.56351 1.04466 8.13488 2.18208 7.9696L8.12264 7.10637L10.7731 1.76826C11.2817 0.743912 12.7183 0.743912 13.2269 1.76826L15.8774 7.10637ZM14.5522 8.93482L12 3.79444L9.44775 8.93482L3.68669 9.77197L7.85712 13.8103L6.87864 19.482L12 16.8044L17.1214 19.482L16.1429 13.8103L20.3133 9.77197L14.5522 8.93482Z" fill="#262626"/>
</g>
</svg>
