<svg width="24" height="24" viewBox="0 0 24 24" fill="none" xmlns="http://www.w3.org/2000/svg">
<path fill-rule="evenodd" clip-rule="evenodd" d="M16.95 1.99817C15.2256 1.99817 13.5718 2.68341 12.3527 3.90305L12 4.25578L11.6471 3.90289C9.10819 1.36398 4.9918 1.36398 2.45289 3.90289C-0.086022 6.4418 -0.0860219 10.5582 2.45289 13.0971L11.2929 21.9371C11.6834 22.3276 12.3166 22.3276 12.7071 21.9371L21.5471 13.0971C22.7666 11.8782 23.4518 10.2244 23.4518 8.49999C23.4518 6.87143 22.8407 5.30591 21.7454 4.11003L21.5471 3.90289C20.328 2.68335 18.6744 1.99817 16.95 1.99817ZM20.1331 11.6827L12 19.8158L3.8671 11.6829C2.10924 9.92502 2.10924 7.07496 3.8671 5.3171C5.62497 3.55924 8.47503 3.55924 10.2329 5.3171L11.2929 6.3771C11.6834 6.76763 12.3166 6.76763 12.7071 6.3771L13.7671 5.3171C14.6112 4.47256 15.7562 3.99817 16.95 3.99817C18.0642 3.99817 19.1359 4.41142 19.96 5.15303L20.1331 5.31727C20.9774 6.16124 21.4518 7.30615 21.4518 8.49999C21.4518 9.69383 20.9774 10.8387 20.1331 11.6827Z" fill="#262626"/>
</svg>
