<svg width="18" height="20" viewBox="0 0 18 20" fill="none" xmlns="http://www.w3.org/2000/svg">
<path fill-rule="evenodd" clip-rule="evenodd" d="M4.5 7.85506C5.94574 7.42479 7 6.08551 7 4.5C7 2.567 5.433 1 3.5 1C1.567 1 0 2.567 0 4.5C0 6.08551 1.05426 7.42479 2.5 7.85506V18.5C2.5 19.0523 2.94772 19.5 3.5 19.5C4.05228 19.5 4.5 19.0523 4.5 18.5V7.85506ZM3.5 6C2.67157 6 2 5.32843 2 4.5C2 3.67157 2.67157 3 3.5 3C4.32843 3 5 3.67157 5 4.5C5 5.32843 4.32843 6 3.5 6ZM12.5 13.1449V2.5C12.5 1.94772 12.9477 1.5 13.5 1.5C14.0523 1.5 14.5 1.94772 14.5 2.5V13.1449C15.9457 13.5752 17 14.9145 17 16.5C17 18.433 15.433 20 13.5 20C11.567 20 10 18.433 10 16.5C10 14.9145 11.0543 13.5752 12.5 13.1449ZM13.5 15C12.6716 15 12 15.6716 12 16.5C12 17.3284 12.6716 18 13.5 18C14.3284 18 15 17.3284 15 16.5C15 15.6716 14.3284 15 13.5 15Z" fill="#262626"/>
<circle cx="15" cy="3" r="3" fill="url(#paint0_radial)"/>
<defs>
<radialGradient id="paint0_radial" cx="0" cy="0" r="1" gradientUnits="userSpaceOnUse" gradientTransform="translate(16.7503 5.08927) rotate(27.9191) scale(5.37167)">
<stop stop-color="#00EAAC"/>
<stop stop-color="#00EAAE"/>
<stop offset="1" stop-color="#00DEEB"/>
</radialGradient>
</defs>
</svg>
