<svg width="24" height="24" viewBox="0 0 24 24" fill="none" xmlns="http://www.w3.org/2000/svg">
<g id="Primitives/Icons/Icon-Small">
<g id="Primitives/Icons/Icon-placeholder">
<path id="_placeholder" fill-rule="evenodd" clip-rule="evenodd" d="M18.6667 0H16V2.66667H18.6667V0ZM13.3333 0V2.66667H10.6667V0H13.3333ZM8 0V2.66667H5.33333V0H8ZM2.66667 0V2.66667H0V0H2.66667ZM0 8V5.33333H2.66667V8H0ZM0 10.6667V13.3333H2.66667V10.6667H0ZM0 18.6667V16H2.66667V18.6667H0ZM0 21.3333V24H2.66667V21.3333H0ZM5.33333 21.3333V24H8V21.3333H5.33333ZM10.6667 21.3333V24H13.3333V21.3333H10.6667ZM16 21.3333V24H18.6667V21.3333H16ZM21.3333 21.3333V24H24V21.3333H21.3333ZM24 18.6667V16H21.3333V18.6667H24ZM24 10.6667V13.3333H21.3333V10.6667H24ZM24 5.33333H21.3333V8H24V5.33333ZM24 0V2.66667H21.3333V0H24ZM10.6667 6.66667H13.3333V10.6667H17.3333V13.3333H13.3333V17.3333H10.6667V13.3333H6.66667V10.6667H10.6667V6.66667Z" fill="#262626"/>
<mask id="mask0" mask-type="alpha" maskUnits="userSpaceOnUse" x="0" y="0" width="24" height="24">
<path id="_placeholder_2" fill-rule="evenodd" clip-rule="evenodd" d="M18.6667 0H16V2.66667H18.6667V0ZM13.3333 0V2.66667H10.6667V0H13.3333ZM8 0V2.66667H5.33333V0H8ZM2.66667 0V2.66667H0V0H2.66667ZM0 8V5.33333H2.66667V8H0ZM0 10.6667V13.3333H2.66667V10.6667H0ZM0 18.6667V16H2.66667V18.6667H0ZM0 21.3333V24H2.66667V21.3333H0ZM5.33333 21.3333V24H8V21.3333H5.33333ZM10.6667 21.3333V24H13.3333V21.3333H10.6667ZM16 21.3333V24H18.6667V21.3333H16ZM21.3333 21.3333V24H24V21.3333H21.3333ZM24 18.6667V16H21.3333V18.6667H24ZM24 10.6667V13.3333H21.3333V10.6667H24ZM24 5.33333H21.3333V8H24V5.33333ZM24 0V2.66667H21.3333V0H24ZM10.6667 6.66667H13.3333V10.6667H17.3333V13.3333H13.3333V17.3333H10.6667V13.3333H6.66667V10.6667H10.6667V6.66667Z" fill="white"/>
</mask>
<g mask="url(#mask0)">
</g>
</g>
</g>
</svg>
