<svg width="24" height="24" viewBox="0 0 24 24" fill="none" xmlns="http://www.w3.org/2000/svg">
<g id="Primitives/Icons/Interests-IconGaming">

<path id="Gaming" fill-rule="evenodd" clip-rule="evenodd" d="M23.9867 14.9007C23.9272 13.5258 23.6881 12.001 23.3305 10.5662C22.9686 9.19131 22.5224 7.906 21.9842 6.91928C19.8917 3.24241 17.6197 3.81194 14.8995 4.52772C14.0324 4.73725 13.1061 4.97631 12.1494 5.06585H11.8503C10.8936 4.97631 9.96735 4.73772 9.10016 4.52772C6.38001 3.84053 4.10798 3.24241 2.01548 6.94928C1.47735 7.93366 0.999227 9.22131 0.670164 10.5962C0.311571 12.031 0.072508 13.5554 0.0129768 14.9307C-0.0470232 16.4551 0.102508 17.5613 0.431102 18.3385C0.760164 19.0573 1.23845 19.5057 1.86595 19.6838C2.43407 19.8333 3.09173 19.7733 3.77938 19.4743C4.94516 18.9962 6.29048 17.9799 7.60579 16.7555C8.5311 15.8588 10.2655 15.4088 11.9999 15.4088C13.7342 15.4088 15.4686 15.8574 16.3939 16.7541C17.7092 17.9799 19.0545 18.9962 20.2203 19.4729C20.908 19.7419 21.5656 19.8319 22.1338 19.6824C22.7314 19.5029 23.2395 19.0843 23.5686 18.3071C23.8972 17.5613 24.0467 16.4551 23.9867 14.9007ZM9.2497 11.5229C8.96956 11.8253 8.58314 12.0074 8.17157 12.031C8.14157 12.4496 7.93251 12.8082 7.66345 13.1091C7.33653 13.4315 6.89681 13.6138 6.43766 13.6173C5.97712 13.6216 5.53468 13.4381 5.21235 13.1091C4.90992 12.829 4.72779 12.4426 4.70423 12.031C4.28526 12.0067 3.89089 11.8252 3.59985 11.5229C3.27812 11.1957 3.09653 10.756 3.0936 10.2971C3.08878 9.83682 3.27156 9.39442 3.59985 9.07178L3.62985 9.04178C3.92891 8.77272 4.2861 8.59319 4.70798 8.56366C4.74468 8.15554 4.92469 7.7736 5.2161 7.48553C5.5429 7.16323 5.98243 6.98095 6.44141 6.97741C6.90216 6.97279 7.34485 7.1563 7.6672 7.48553L7.6972 7.51553C7.97323 7.79818 8.14228 8.16809 8.17532 8.56178C8.59391 8.59131 8.95251 8.80085 9.25345 9.06991C9.57584 9.39665 9.75812 9.83622 9.76157 10.2952C9.76572 10.7572 9.58078 11.2007 9.2497 11.5229ZM15.0786 11.3433C14.6554 11.3433 14.2739 11.0884 14.112 10.6975C13.9501 10.3065 14.0396 9.85651 14.3388 9.55728C14.638 9.25806 15.088 9.16855 15.479 9.33049C15.8699 9.49243 16.1249 9.87393 16.1249 10.2971C16.1249 10.8749 15.6564 11.3433 15.0786 11.3433ZM17.203 13.4682C16.6251 13.4682 16.1567 12.9998 16.1567 12.4219C16.1567 11.8441 16.6251 11.3757 17.203 11.3757C17.7808 11.3757 18.2492 11.8441 18.2492 12.4219C18.2492 12.9998 17.7808 13.4682 17.203 13.4682ZM17.203 9.22366C16.6251 9.22366 16.1567 8.75524 16.1567 8.17741C16.1567 7.59958 16.6251 7.13116 17.203 7.13116C17.7808 7.13116 18.2492 7.59958 18.2492 8.17741C18.2477 8.75421 17.7798 9.22106 17.203 9.22131V9.22366ZM19.3255 11.3457C18.7476 11.3457 18.2792 10.8773 18.2792 10.2994C18.2792 9.72161 18.7476 9.25319 19.3255 9.25319C19.9033 9.25319 20.3717 9.72161 20.3717 10.2994C20.3704 10.8771 19.9012 11.3444 19.3236 11.3433L19.3255 11.3457ZM8.50251 9.84897C8.68702 10.0286 8.74322 10.3026 8.6443 10.5404C8.54538 10.7781 8.31138 10.9314 8.05391 10.9271H7.63532C7.48473 10.927 7.34027 10.9867 7.23379 11.0932C7.12731 11.1997 7.06754 11.3442 7.06766 11.4948V11.8833C7.07391 12.1118 6.95561 12.3255 6.75878 12.4416C6.56194 12.5576 6.31761 12.5576 6.12077 12.4416C5.92393 12.3255 5.80564 12.1118 5.81188 11.8833V11.4648C5.81201 11.3142 5.75224 11.1697 5.64576 11.0632C5.53927 10.9567 5.39482 10.897 5.24423 10.8971H4.82798C4.57743 10.9031 4.34842 10.7561 4.24966 10.5258C4.1509 10.2954 4.20227 10.0282 4.37938 9.85085L4.40938 9.82085C4.52949 9.72781 4.67611 9.67544 4.82798 9.67131H5.24657C5.3972 9.67082 5.54146 9.61047 5.64758 9.50356C5.7537 9.39665 5.81297 9.25195 5.81235 9.10131V8.68319C5.8141 8.42863 5.96789 8.19979 6.20291 8.102C6.43794 8.0042 6.70867 8.05641 6.89048 8.2346L6.92048 8.2646C7.01351 8.38471 7.06588 8.53132 7.07001 8.68319V9.10131C7.06939 9.25187 7.1286 9.3965 7.23461 9.5034C7.34063 9.61029 7.48477 9.67069 7.63532 9.67131H8.05391C8.22152 9.66629 8.38379 9.73055 8.50251 9.84897ZM8.50251 9.84897C8.68702 10.0286 8.74322 10.3026 8.6443 10.5404C8.54538 10.7781 8.31138 10.9314 8.05391 10.9271H7.63532C7.48473 10.927 7.34027 10.9867 7.23379 11.0932C7.12731 11.1997 7.06754 11.3442 7.06766 11.4948V11.8833C7.07391 12.1118 6.95561 12.3255 6.75878 12.4416C6.56194 12.5576 6.31761 12.5576 6.12077 12.4416C5.92393 12.3255 5.80564 12.1118 5.81188 11.8833V11.4648C5.81201 11.3142 5.75224 11.1697 5.64576 11.0632C5.53927 10.9567 5.39482 10.897 5.24423 10.8971H4.82798C4.57743 10.9031 4.34842 10.7561 4.24966 10.5258C4.1509 10.2954 4.20227 10.0282 4.37938 9.85085L4.40938 9.82085C4.52949 9.72781 4.67611 9.67544 4.82798 9.67131H5.24657C5.3972 9.67082 5.54146 9.61047 5.64758 9.50356C5.7537 9.39665 5.81297 9.25195 5.81235 9.10131V8.68319C5.8141 8.42863 5.96789 8.19979 6.20291 8.102C6.43794 8.0042 6.70867 8.05641 6.89048 8.2346L6.92048 8.2646C7.01351 8.38471 7.06588 8.53132 7.07001 8.68319V9.10131C7.06939 9.25187 7.1286 9.3965 7.23461 9.5034C7.34063 9.61029 7.48477 9.67069 7.63532 9.67131H8.05391C8.22152 9.66629 8.38379 9.73055 8.50251 9.84897ZM8.50251 9.84053C8.68636 10.0196 8.74283 10.2924 8.64513 10.5297C8.54743 10.767 8.31521 10.921 8.0586 10.9187H7.64001C7.48929 10.9192 7.34496 10.9796 7.23883 11.0866C7.1327 11.1936 7.07348 11.3384 7.07423 11.4891V11.8777C7.07515 12.102 6.95637 12.3097 6.76263 12.4226C6.56889 12.5355 6.32963 12.5365 6.13498 12.4252C5.94032 12.3138 5.81984 12.1071 5.81891 11.8829V11.4643C5.81854 11.3136 5.75823 11.1693 5.6513 11.0631C5.54436 10.957 5.39959 10.8978 5.24891 10.8985H4.83032C4.5813 10.9048 4.35324 10.7598 4.25342 10.5315C4.15361 10.3033 4.20192 10.0374 4.37563 9.85881L4.40516 9.82881C4.52494 9.73531 4.67141 9.68244 4.82329 9.67788H5.24141C5.39209 9.67751 5.53642 9.6172 5.64256 9.51026C5.74871 9.40332 5.80794 9.25855 5.8072 9.10788V8.68928C5.80915 8.43578 5.96176 8.20776 6.19536 8.1093C6.42897 8.01085 6.69876 8.06084 6.88157 8.23647L6.91157 8.26647C7.00501 8.3861 7.05788 8.5324 7.06251 8.68413V9.10272C7.06288 9.25339 7.12319 9.39773 7.23012 9.50387C7.33706 9.61002 7.48184 9.66925 7.63251 9.6685H8.0511C8.2182 9.66173 8.38074 9.72393 8.50063 9.84053H8.50251Z" fill="#262626"/>
</g>
</svg>
