<svg width="24" height="24" viewBox="0 0 24 24" fill="none" xmlns="http://www.w3.org/2000/svg">
<g id="Primitives/Icons/Interests-IconMovies">

<path id="Combined Shape" fill-rule="evenodd" clip-rule="evenodd" d="M13.9303 11.3031C15.8019 11.3033 17.4894 10.176 18.2057 8.44683C18.922 6.71771 18.5262 4.72733 17.2027 3.40388C15.8793 2.08044 13.8889 1.68458 12.1598 2.40092C10.4384 3.11403 9.3135 4.78955 9.30362 6.6511C9.29696 5.45571 8.82709 4.28261 7.94809 3.40371C6.62461 2.08037 4.63427 1.6846 2.90521 2.40097C1.17614 3.11733 0.0488777 4.80474 0.0490763 6.67633C0.02061 9.23387 2.11877 11.3031 4.67632 11.3031C6.5479 11.3031 8.23519 10.1756 8.95137 8.44649C9.18498 7.88248 9.30025 7.2907 9.30361 6.70333C9.30994 7.92091 9.79635 9.08731 10.6578 9.9488C11.5257 10.8166 12.703 11.3039 13.9303 11.3031ZM13.9303 4.77939C14.6976 4.7792 15.3894 5.24124 15.6832 5.95006C15.977 6.65888 15.8148 7.47487 15.2723 8.01749C14.7298 8.56011 13.9139 8.72249 13.205 8.42891C12.4961 8.13533 12.0339 7.44361 12.0339 6.67633C12.0333 6.17315 12.233 5.69043 12.5887 5.33459C12.9445 4.97875 13.4271 4.779 13.9303 4.77939ZM4.67632 4.77939C5.72396 4.77939 6.57325 5.62868 6.57325 6.67633C6.57325 7.72397 5.72396 8.57326 4.67632 8.57326C3.62867 8.57326 2.77938 7.72397 2.77938 6.67633C2.75092 5.61277 3.61325 4.77939 4.67632 4.77939ZM23.2138 12.3136C23.4679 12.3782 23.6852 12.5424 23.8169 12.7691C23.9318 12.9124 23.9607 13.0852 23.9607 13.2574L23.9318 17.0508V20.9001C23.934 21.16 23.8318 21.4098 23.648 21.5936C23.4643 21.7773 23.2144 21.8796 22.9546 21.8773C22.7587 21.8829 22.5666 21.8231 22.4083 21.7075L19.1892 19.839C19.175 19.839 19.1679 19.832 19.1608 19.8249C19.1536 19.8177 19.1463 19.8106 19.1318 19.8106L18.3558 19.3507V14.8098L19.1902 14.319L22.4663 12.4255C22.6903 12.2893 22.9597 12.249 23.2138 12.3136ZM16.402 11.5617C15.6365 11.9531 14.79 12.1598 13.9303 12.1654C12.8681 12.1709 11.8282 11.8614 10.9418 11.2761H7.66527C6.77889 11.8619 5.73878 12.1719 4.67632 12.1669C3.81494 12.1753 2.96518 11.9677 2.20466 11.5632C1.51697 11.9617 1.09091 12.6938 1.08417 13.4886V20.4996C1.08874 21.7834 2.12828 22.8229 3.41202 22.8275H15.2236C16.5074 22.8229 17.5471 21.7835 17.5519 20.4996V13.4871C17.5215 12.6827 17.0631 11.9352 16.402 11.5617Z" fill="#262626"/>
</g>
</svg>
