<svg width="24" height="24" viewBox="0 0 24 24" fill="none" xmlns="http://www.w3.org/2000/svg">
<g id="Primitives/Icons/Interests-IconVolunteering">

<path id="Combined Shape" fill-rule="evenodd" clip-rule="evenodd" d="M15.8095 -2.28447e-05C16.9731 -0.0087023 18.0834 0.487114 18.8536 1.35935C19.5938 2.19091 20.0011 3.30279 20.0011 4.49013C20.0011 6.57888 18.652 8.13748 17.1989 9.51091C16.4489 10.2183 15.585 10.9481 14.5847 11.7919L14.5096 11.8552C13.9573 12.3216 13.3863 12.8038 12.7814 13.3284C12.5171 13.5575 12.1246 13.5575 11.8603 13.3284C11.2486 12.7971 10.67 12.3089 10.1111 11.8374L10.057 11.7919L10.0469 11.7833C8.49354 10.4721 7.15156 9.3393 6.21609 8.23685C5.14125 6.97076 4.64062 5.78013 4.64062 4.49013C4.64062 3.30279 5.04844 2.19091 5.78813 1.35935C6.55843 0.487266 7.66864 -0.0085167 8.83219 -2.28447e-05C10.1531 -2.28447e-05 11.2969 0.624352 12.1425 1.8056C12.2063 1.8942 12.2653 1.98279 12.3211 2.07045C12.3764 1.98279 12.4359 1.8942 12.4992 1.8056C13.3444 0.624352 14.4891 -2.28447e-05 15.8095 -2.28447e-05ZM23.7891 15.5203C23.7041 15.3839 23.5944 15.2647 23.4656 15.1687C22.95 14.7159 22.0758 14.7586 21.5672 15.3094L18.375 18.9937L18.2766 19.1062C17.8799 19.5403 17.3177 19.7856 16.7297 19.7812H11.2734C10.8851 19.7812 10.5703 19.4664 10.5703 19.0781C10.5703 18.6898 10.8851 18.375 11.2734 18.375H15.5625C16.3382 18.3727 16.9664 17.7444 16.9688 16.9687V16.9547C16.961 16.1835 16.3337 15.5624 15.5625 15.5625H13.0172C12.563 15.5577 12.125 15.3935 11.7797 15.0984C10.0641 13.5937 7.56094 13.4953 5.71875 14.775V23.4234C7.11176 23.8049 8.54945 23.9988 9.99375 24H16.2656C17.8146 23.9989 19.2729 23.2698 20.2031 22.0312L23.5781 17.5312C24.0708 16.8848 24.1078 15.9984 23.7891 15.5203ZM2.20312 14.1562H0.703125C0.3148 14.1562 0 14.471 0 14.8594V23.2969C0 23.6852 0.3148 24 0.703125 24H2.20312C3.36757 23.9987 4.31121 23.055 4.3125 21.8906V16.2656C4.3125 15.7062 4.09026 15.1696 3.69468 14.774C3.29909 14.3785 2.76257 14.1562 2.20312 14.1562Z" fill="#262626"/>
</g>
</svg>
