<svg width="24" height="24" viewBox="0 0 24 24" fill="none" xmlns="http://www.w3.org/2000/svg">
<g id="Primitives/Icons/Interests-IconGardening">

<path id="Gardening" fill-rule="evenodd" clip-rule="evenodd" d="M22.0864 11.2274L21.3802 10.7012C21.3571 10.675 21.3308 10.6519 21.302 10.6323C21.1849 10.5541 18.4003 8.74279 15.3748 10.6254C14.4925 11.1743 13.7887 11.9671 13.2325 12.8144C13.6161 11.6243 14.1211 10.3756 14.7772 9.30541C17.4132 8.59133 19.5957 6.74321 20.7344 4.26099L20.8092 4.0982C20.875 3.95569 20.8497 3.78771 20.745 3.67079C20.6403 3.55388 20.4761 3.5104 20.3272 3.56017C20.2289 3.59361 17.8328 4.41738 15.0403 7.60869C13.6328 9.21689 12.7289 11.5795 12.177 13.5664L12.1618 8.92082V8.76197L12.1338 0.393446C12.1333 0.207154 12.0022 0.0467541 11.8197 0.00916754C11.6372 -0.028419 11.4534 0.0671123 11.3793 0.238036L9.90393 3.63935C9.86719 3.72453 9.86145 3.81988 9.8877 3.90886L11.3744 8.8805L11.3852 12.1175C10.8649 9.4741 10.1002 6.65017 9.10918 5.79591C7.1341 4.09131 5.44721 3.2641 3.95213 3.2641C2.40196 3.2641 0.320653 4.56541 0.232621 4.62295C0.0910932 4.71215 0.0214441 4.88108 0.0589878 5.04411C0.0965315 5.20713 0.233057 5.32858 0.399342 5.34689L1.9018 5.51361C3.50737 5.69197 5.07703 6.11058 6.55819 6.75541L6.92852 6.91672L9.7318 8.69066C10.1557 10.0352 10.5216 11.7472 10.8084 13.3559C10.2305 12.3172 9.43721 11.2962 8.3636 10.6289C5.33803 8.74673 2.55344 10.5575 2.43639 10.6352C2.40737 10.6549 1.64951 11.2303 1.64951 11.2303C0.599274 12.009 0.0202077 13.2706 0.114588 14.5746L0.362948 18.1357C0.376302 18.3279 0.526778 18.4821 0.718522 18.5002C0.730817 18.5002 0.743112 18.5002 0.755899 18.5002C0.868521 18.4988 0.975035 18.4487 1.04803 18.363L1.05147 18.3659L2.37246 16.8605C3.6207 15.4333 4.53367 13.7448 5.04442 11.9189L5.42016 10.5659C6.18147 10.561 7.05098 10.7385 7.94606 11.2952C10.1311 12.6512 11.0656 15.8007 11.3331 16.918H7.46803C7.25074 16.918 7.07459 17.0942 7.07459 17.3115C7.07459 19.8064 7.65295 22.1764 8.66164 23.8131C8.73354 23.9289 8.86025 23.9993 8.99656 23.999H14.5952C14.7319 23.9992 14.8589 23.9285 14.9307 23.8121C15.9389 22.1754 16.5172 19.8059 16.5172 17.3105C16.5172 17.0932 16.3411 16.9171 16.1238 16.9171H12.299C12.6221 15.7318 13.6456 12.628 15.7908 11.2933C16.6859 10.7361 17.5554 10.5585 18.3167 10.5639L18.6925 11.9164C19.2026 13.7426 20.1154 15.4314 21.3639 16.8585L22.6844 18.3644L22.6879 18.3615C22.7608 18.4474 22.8673 18.4974 22.98 18.4987C22.9928 18.4987 23.0046 18.4987 23.0179 18.4987C23.2094 18.4804 23.3596 18.3262 23.3729 18.1343L23.6218 14.5731C23.7155 13.2692 23.1364 12.0077 22.0864 11.2289V11.2274ZM14.1098 18.843L14.8854 18.9792C14.8692 19.0707 14.4856 21.2277 13.8256 22.3515L13.1469 21.9526C13.7351 20.9508 14.1064 18.8641 14.1098 18.843Z" fill="#262626"/>
</g>
</svg>
