<svg width="24" height="24" viewBox="0 0 24 24" fill="none" xmlns="http://www.w3.org/2000/svg">
<g id="Primitives/Icons/Marriage">

<path id="Shape" fill-rule="evenodd" clip-rule="evenodd" d="M20.25 4.75L17.7126 7.79505C20.7659 8.6813 23 11.4941 23 14.8333C23 18.8834 19.7167 22.1667 15.6667 22.1667C14.3297 22.1667 13.0811 21.8021 12.0029 21.1758C10.9226 21.8022 9.67184 22.1667 8.33333 22.1667C4.28333 22.1667 1 18.8834 1 14.8333C1 10.7833 4.28333 7.5 8.33333 7.5C9.2885 7.5 10.1982 7.6882 11.0352 8.02044C10.4424 8.42509 9.90576 8.90342 9.43757 9.44482C9.08059 9.37183 8.71134 9.33333 8.33333 9.33333C5.30066 9.33333 2.83333 11.8007 2.83333 14.8333C2.83333 17.866 5.30066 20.3333 8.33333 20.3333C11.366 20.3333 13.8333 17.866 13.8333 14.8333C13.8333 13.2095 13.1172 11.758 11.9937 10.7514C10.8752 11.7588 10.1667 13.2131 10.1667 14.8333C10.1667 16.1229 10.6158 17.3077 11.3619 18.2466C10.9005 18.6565 10.3589 18.9686 9.76001 19.1665C8.86729 17.9517 8.33333 16.4566 8.33333 14.8333C8.33333 11.4941 10.5675 8.6813 13.6207 7.79505L11.0833 4.75L12.9167 2H18.4167L20.25 4.75ZM17.5246 5.66667L16.9161 7.31873L18.2927 5.66667H17.5246ZM18.32 3.50757L19.1075 4.68893L19.0568 4.75H17.8624L18.32 3.50757ZM17.1151 4.12798L17.5615 2.91667H16.4363L17.1151 4.12798ZM16.5482 5.66667L15.869 7.5102C15.8393 7.50939 15.8098 7.50734 15.7804 7.50528L15.7804 7.50528C15.7427 7.50264 15.705 7.5 15.6667 7.5C15.6283 7.5 15.5906 7.50264 15.553 7.50528C15.5237 7.50734 15.4944 7.5094 15.4648 7.5102L14.7863 5.66667H16.5482ZM16.4123 4.75L15.6658 3.41705L14.9142 4.75H16.4123ZM14.8952 2.91667L14.2169 4.11985L13.7743 2.91667H14.8952ZM13.0143 3.50608L12.2258 4.68893L12.2766 4.75H13.4719L13.0143 3.50608ZM13.0407 5.66667H13.8092L14.4173 7.31867L13.0407 5.66667ZM13.61 19.9183C14.2467 20.1786 14.9373 20.3333 15.6667 20.3333C18.6993 20.3333 21.1667 17.866 21.1667 14.8333C21.1667 11.8007 18.6993 9.33333 15.6667 9.33333C14.9326 9.33333 14.233 9.48046 13.5923 9.74251C14.8715 11.0613 15.6667 12.8509 15.6667 14.8333C15.6667 16.8096 14.8811 18.5996 13.61 19.9183Z" fill="black"/>
</g>
</svg>
