<svg width="22" height="22" viewBox="0 0 22 22" fill="none" xmlns="http://www.w3.org/2000/svg">
<path fill-rule="evenodd" clip-rule="evenodd" d="M21.6396 15.5776L19.1567 14.3577C18.4986 14.0277 18.0898 13.3656 18.0898 12.6292V9.3347C18.0898 8.63788 17.9251 7.94015 17.6143 7.31861L14.5949 1.23711C14.2134 0.474031 13.4464 0 12.5933 0C11.9703 0 11.4061 0.25618 11 0.668465C10.5938 0.25618 10.0296 0 9.40659 0C8.55349 0 7.7865 0.474031 7.40412 1.2387L4.38647 7.31698C4.07486 7.9402 3.91016 8.63792 3.91016 9.3347V12.6292C3.91016 13.3656 3.50131 14.0277 2.84316 14.3577L0.360382 15.5777C0.0386316 15.7358 -0.0922083 16.1263 0.0690964 16.4463L2.69019 21.6455C2.85124 21.9649 3.24083 22.0908 3.55747 21.93L9.15054 19.0905C9.9043 18.7137 10.5492 18.1286 11 17.3778C11.4534 18.1327 12.1002 18.7159 12.846 19.0887L18.4426 21.93C18.7599 22.0911 19.149 21.9645 19.3099 21.6454L21.931 16.4462C22.0923 16.1261 21.9612 15.7357 21.6396 15.5776ZM10.3555 15.0551C10.3555 16.2837 9.67287 17.3882 8.57051 17.9393L3.55025 20.488L1.51328 16.4474L3.41383 15.5136C3.41516 15.513 3.41653 15.5123 3.41782 15.5116C4.51666 14.9622 5.19926 13.8578 5.19926 12.6292V9.33479C5.19926 8.83708 5.31691 8.33873 5.54031 7.89194L8.55796 1.81367C8.71974 1.49011 9.04492 1.28915 9.40664 1.28915C9.92982 1.28915 10.3555 1.7148 10.3555 2.23798C10.3555 2.88032 10.379 3.02358 10.2553 3.27091C9.59054 4.60036 9.03289 5.82785 8.39296 7.63731C8.39279 7.6377 7.88752 9.06632 7.88752 9.06632C7.82556 9.22741 7.77735 9.47293 7.77735 9.71089V13.578C7.77735 13.934 8.06592 14.2226 8.42188 14.2226C8.77783 14.2226 9.06641 13.934 9.06641 13.578V9.71089C9.06641 9.34815 9.3616 9.06636 9.71094 9.06636C10.0663 9.06636 10.3555 9.3555 10.3555 9.71089V15.0551ZM9.71197 7.77726C10.1105 6.67704 10.5412 5.64034 10.996 4.6845C11.4511 5.6586 11.8823 6.69371 12.2839 7.77726C11.7911 7.77859 11.3412 7.96546 11 8.27123C10.6579 7.96456 10.2065 7.77752 9.71197 7.77726ZM18.4498 20.488L13.426 17.9375C12.3271 17.3882 11.6445 16.2837 11.6445 15.0551V9.71085C11.6445 9.35546 11.9337 9.06632 12.2891 9.06632C12.6391 9.06632 12.9336 9.34884 12.9336 9.71085V13.578C12.9336 13.9339 13.2222 14.2225 13.5781 14.2225C13.9341 14.2225 14.2227 13.9339 14.2227 13.578V9.71085C14.2227 9.2733 14.1107 9.06129 13.7324 7.99163C13.1346 6.30137 12.4658 4.71311 11.7447 3.27082C11.6214 3.02423 11.6445 2.88651 11.6445 2.23786C11.6445 1.71467 12.0702 1.28902 12.5934 1.28902C12.9551 1.28902 13.2803 1.48998 13.4412 1.81191L16.4605 7.89349C16.6831 8.3386 16.8007 8.837 16.8007 9.3347V12.6292C16.8007 13.8577 17.4833 14.9622 18.5822 15.5115C18.5835 15.5122 18.5849 15.5129 18.5862 15.5135L20.4868 16.4474L18.4498 20.488Z" fill="#262626"/>
</svg>
