<svg width="22" height="20" viewBox="0 0 22 20" fill="none" xmlns="http://www.w3.org/2000/svg">
<path fill-rule="evenodd" clip-rule="evenodd" d="M10.3933 18.6092L10.3962 18.7299C10.3962 19.5354 11.6038 19.5354 11.6038 18.7299C11.6038 17.3951 12.6851 16.3131 14.0189 16.3131H21.0629C21.3964 16.3131 21.6667 16.0426 21.6667 15.7089V0.604189C21.6667 0.270505 21.3964 0 21.0629 0H15.0252C13.3007 0 11.7965 0.943648 11 2.34308C10.2036 0.943648 8.69933 0 6.97485 0H0.937117C0.603662 0 0.333344 0.270505 0.333344 0.604189V15.7089C0.333344 16.0426 0.603662 16.3131 0.937117 16.3131H7.98114C9.27454 16.3131 10.3305 17.3305 10.3933 18.6092ZM11.6038 4.63212V16.0279L11.6422 15.9939C12.2465 15.4678 13.0268 15.1388 13.8831 15.1072L14.0189 15.1047H20.4587V1.20838H15.0252C13.1356 1.20838 11.6038 2.74124 11.6038 4.63212ZM10.3962 16.0279V4.63212C10.3962 2.78521 8.93485 1.27987 7.10609 1.21085L6.97485 1.20838H1.54069V15.1047H7.98114C8.89056 15.1047 9.72172 15.4401 10.3579 15.9939L10.3962 16.0279Z" fill="#262626"/>
</svg>
